<?xml version="1.0" encoding="utf-8"?>
<svg viewBox="81.293 126.2695 212.207 103.482" xmlns="http://www.w3.org/2000/svg">
  <defs>
    <clipPath id="fda04f63b0">
      <path d="M 81.273438 126.269531 L 293.523438 126.269531 L 293.523438 194.519531 L 81.273438 194.519531 Z M 81.273438 126.269531 " clip-rule="nonzero"/>
    </clipPath>
  </defs>
  <g fill="#01052d" fill-opacity="1" transform="matrix(0.9999999999999999, 0, 0, 0.9999999999999999, 0, -7.105427357601002e-15)">
    <g transform="translate(101.070438, 229.470249)">
      <g>
        <path d="M 13.691406 -8.375 C 16.117188 -9.222656 17.808594 -11.578125 17.808594 -14.464844 C 17.808594 -18.125 15.097656 -21.117188 11.332031 -21.117188 L 1.9375 -21.117188 L 1.9375 0 L 7.320312 0 L 7.320312 -7.742188 L 8.550781 -7.742188 L 13.480469 0 L 19.53125 0 Z M 10.453125 -12.070312 L 7.320312 -12.070312 L 7.320312 -16.433594 L 10.453125 -16.433594 C 11.71875 -16.433594 12.632812 -15.519531 12.632812 -14.253906 C 12.632812 -12.988281 11.71875 -12.070312 10.453125 -12.070312 Z M 10.453125 -12.070312 "/>
      </g>
    </g>
  </g>
  <g fill="#01052d" fill-opacity="1" transform="matrix(0.9999999999999999, 0, 0, 0.9999999999999999, 0, -7.105427357601002e-15)">
    <g transform="translate(121.605073, 229.470249)">
      <g>
        <path d="M 15.203125 -16.433594 L 15.203125 -21.117188 L 2.113281 -21.117188 L 2.113281 0 L 15.203125 0 L 15.203125 -4.679688 L 7.496094 -4.679688 L 7.496094 -8.234375 L 14.007812 -8.234375 L 14.007812 -12.882812 L 7.496094 -12.882812 L 7.496094 -16.433594 Z M 15.203125 -16.433594 "/>
      </g>
    </g>
  </g>
  <g fill="#01052d" fill-opacity="1" transform="matrix(0.9999999999999999, 0, 0, 0.9999999999999999, 0, -7.105427357601002e-15)">
    <g transform="translate(139.324862, 229.470249)">
      <g>
        <path d="M 17.105469 -21.117188 L 17.105469 -8.199219 L 7.566406 -21.117188 L 1.9375 -21.117188 L 1.9375 0 L 7.320312 0 L 7.320312 -12.953125 L 16.824219 0 L 22.488281 0 L 22.488281 -21.117188 Z M 17.105469 -21.117188 "/>
      </g>
    </g>
  </g>
  <g fill="#01052d" fill-opacity="1" transform="matrix(0.9999999999999999, 0, 0, 0.9999999999999999, 0, -7.105427357601002e-15)">
    <g transform="translate(165.066957, 229.470249)">
      <g>
        <path d="M 12.035156 0.28125 C 18.019531 0.28125 22.875 -4.574219 22.875 -10.558594 C 22.875 -16.542969 18.019531 -21.398438 12.035156 -21.398438 C 6.019531 -21.398438 1.195312 -16.542969 1.195312 -10.558594 C 1.195312 -4.574219 6.019531 0.28125 12.035156 0.28125 Z M 12.035156 -4.996094 C 8.832031 -4.996094 6.441406 -7.355469 6.441406 -10.558594 C 6.441406 -13.761719 8.832031 -16.117188 12.035156 -16.117188 C 15.203125 -16.117188 17.597656 -13.761719 17.597656 -10.558594 C 17.597656 -7.355469 15.203125 -4.996094 12.035156 -4.996094 Z M 12.035156 -4.996094 "/>
      </g>
    </g>
  </g>
  <g fill="#01052d" fill-opacity="1" transform="matrix(0.9999999999999999, 0, 0, 0.9999999999999999, 0, -7.105427357601002e-15)">
    <g transform="translate(190.42201, 229.470249)">
      <g>
        <path d="M 20.273438 -21.117188 L 14.007812 -7.671875 L 7.777344 -21.117188 L 1.9375 -21.117188 L 1.9375 0 L 7.320312 0 L 7.320312 -11.367188 L 12.5625 0 L 15.449219 0 L 20.695312 -11.296875 L 20.695312 0 L 26.078125 0 L 26.078125 -21.117188 Z M 20.273438 -21.117188 "/>
      </g>
    </g>
  </g>
  <g fill="#01052d" fill-opacity="1" transform="matrix(0.9999999999999999, 0, 0, 0.9999999999999999, 0, -7.105427357601002e-15)">
    <g transform="translate(219.753044, 229.470249)">
      <g>
        <path d="M 14.886719 0 L 20.660156 0 L 13.023438 -21.117188 L 7.003906 -21.117188 L -0.632812 0 L 5.171875 0 L 6.335938 -3.695312 L 13.726562 -3.695312 Z M 7.707031 -8.058594 L 10.03125 -15.519531 L 12.386719 -8.058594 Z M 7.707031 -8.058594 "/>
      </g>
    </g>
  </g>
  <g fill="#01052d" fill-opacity="1" transform="matrix(0.9999999999999999, 0, 0, 0.9999999999999999, 0, -7.105427357601002e-15)">
    <g transform="translate(241.13214, 229.470249)">
      <g>
        <path d="M 15.378906 -21.117188 L -0.316406 -21.117188 L -0.316406 -16.433594 L 4.855469 -16.433594 L 4.855469 0 L 10.207031 0 L 10.207031 -16.433594 L 15.378906 -16.433594 Z M 15.378906 -21.117188 "/>
      </g>
    </g>
  </g>
  <g fill="#01052d" fill-opacity="1" transform="matrix(0.9999999999999999, 0, 0, 0.9999999999999999, 0, -7.105427357601002e-15)">
    <g transform="translate(257.514882, 229.470249)">
      <g>
        <path d="M 15.203125 -16.433594 L 15.203125 -21.117188 L 2.113281 -21.117188 L 2.113281 0 L 15.203125 0 L 15.203125 -4.679688 L 7.496094 -4.679688 L 7.496094 -8.234375 L 14.007812 -8.234375 L 14.007812 -12.882812 L 7.496094 -12.882812 L 7.496094 -16.433594 Z M 15.203125 -16.433594 "/>
      </g>
    </g>
  </g>
  <g clip-path="url(#fda04f63b0)" transform="matrix(0.9999999999999999, 0, 0, 0.9999999999999999, 0, -7.105427357601002e-15)">
    <path d="M 150.367188 151.1875 L 146.007812 151.835938 L 146.007812 155.582031 L 150.367188 155.046875 Z M 141.484375 160.285156 L 145.28125 160.082031 L 145.28125 156.351562 L 141.484375 156.820312 Z M 145.28125 151.941406 L 141.484375 152.503906 L 141.484375 156.136719 L 145.28125 155.671875 Z M 146.007812 160.042969 L 150.367188 159.808594 L 150.367188 155.730469 L 146.007812 156.265625 Z M 205.632812 156.230469 L 210.378906 155.972656 L 210.378906 151.316406 L 205.632812 151.898438 Z M 211.285156 155.925781 L 216.738281 155.632812 L 216.738281 150.539062 L 211.285156 151.207031 Z M 216.738281 144.859375 L 211.285156 145.667969 L 211.285156 150.351562 L 216.738281 149.683594 Z M 210.378906 145.800781 L 205.632812 146.507812 L 205.632812 151.046875 L 210.378906 150.464844 Z M 203.953125 186.988281 C 207.917969 186.53125 211.890625 186.140625 215.863281 185.800781 L 215.863281 165.394531 L 203.953125 166.910156 Z M 152.066406 184.578125 L 152.097656 184.636719 L 152.136719 184.613281 L 152.105469 184.558594 L 152.164062 184.527344 L 152.144531 184.488281 L 152.085938 184.519531 L 152.054688 184.460938 L 152.019531 184.480469 L 152.050781 184.539062 L 151.988281 184.570312 L 152.007812 184.609375 Z M 108.9375 184.519531 L 107.996094 181.550781 L 107.792969 181.617188 L 108.074219 182.546875 L 107.742188 181.632812 L 107.464844 181.722656 L 108.039062 183.617188 L 107.375 181.75 L 107.207031 181.804688 L 107.570312 183.015625 L 107.136719 181.824219 L 106.398438 182.058594 L 106.652344 182.898438 L 106.355469 182.070312 L 106.175781 182.128906 L 106.542969 183.339844 L 106.109375 182.148438 L 105.238281 182.429688 L 105.574219 183.546875 L 105.175781 182.449219 L 104.984375 182.507812 L 105.347656 183.71875 L 104.917969 182.53125 L 104.234375 182.746094 L 104.621094 184.039062 L 104.160156 182.769531 L 103.769531 182.894531 L 104.066406 183.882812 L 103.714844 182.910156 L 103.378906 183.019531 L 104.320312 185.988281 Z M 119.320312 175.636719 L 118.035156 172.449219 L 107.507812 176.699219 L 108.792969 179.890625 Z M 119.367188 174.035156 L 120.214844 176.144531 L 116.871094 181.296875 C 116.820312 181.371094 116.8125 181.46875 116.847656 181.550781 L 117.15625 182.324219 L 117.664062 182.117188 L 117.410156 181.476562 L 120.753906 176.328125 C 120.804688 176.25 120.8125 176.15625 120.78125 176.074219 L 119.773438 173.574219 C 119.71875 173.433594 119.558594 173.363281 119.417969 173.421875 L 118.695312 173.714844 L 118.898438 174.222656 Z M 105.007812 188.152344 L 109.621094 186.679688 L 108.972656 184.632812 L 104.355469 186.101562 Z M 180.808594 170.984375 C 183.28125 170.21875 185.367188 173.640625 185.367188 173.640625 L 185.90625 173.078125 C 185.90625 173.078125 181.566406 166.140625 178.230469 166.992188 C 175.359375 167.722656 173.804688 168.359375 173.804688 168.359375 L 173.207031 168.542969 C 172.976562 169.253906 172.359375 169.867188 171.519531 170.128906 C 170.675781 170.390625 169.820312 170.226562 169.230469 169.773438 L 167.199219 170.402344 L 168.726562 175.355469 L 170.550781 174.789062 C 170.550781 174.789062 171.121094 174.058594 172.566406 173.535156 C 173.839844 173.078125 175.546875 173.757812 175.890625 174.886719 C 175.902344 174.914062 175.910156 174.941406 175.914062 174.972656 L 179.71875 173.796875 C 179.582031 173.222656 179.289062 171.453125 180.808594 170.984375 Z M 195.699219 179.113281 C 195.609375 179.121094 195.523438 179.140625 195.445312 179.171875 L 194.675781 179.335938 C 194.511719 179.210938 194.289062 179.132812 194.042969 179.132812 C 193.792969 179.132812 193.570312 179.210938 193.410156 179.335938 L 192.640625 179.171875 C 192.558594 179.140625 192.472656 179.121094 192.382812 179.113281 L 192.367188 179.113281 C 192.347656 179.113281 192.332031 179.113281 192.3125 179.113281 C 191.855469 179.113281 191.488281 179.433594 191.488281 179.832031 C 191.488281 180.226562 191.855469 180.550781 192.3125 180.550781 C 192.398438 180.550781 192.480469 180.539062 192.554688 180.519531 L 193.449219 180.398438 C 193.5 180.433594 193.554688 180.460938 193.613281 180.484375 L 193.613281 181.320312 L 193.273438 181.320312 C 193.203125 181.320312 193.148438 181.375 193.148438 181.445312 C 193.148438 181.511719 193.203125 181.570312 193.273438 181.570312 L 194.8125 181.570312 C 194.878906 181.570312 194.933594 181.511719 194.933594 181.445312 C 194.933594 181.375 194.878906 181.320312 194.8125 181.320312 L 194.472656 181.320312 L 194.472656 180.484375 C 194.53125 180.460938 194.582031 180.433594 194.632812 180.398438 L 195.527344 180.519531 C 195.605469 180.539062 195.6875 180.550781 195.773438 180.550781 C 196.230469 180.550781 196.597656 180.226562 196.597656 179.832031 C 196.597656 179.433594 196.226562 179.113281 195.773438 179.113281 C 195.753906 179.113281 195.734375 179.113281 195.714844 179.113281 Z M 192.90625 181.667969 C 192.785156 181.667969 192.6875 181.765625 192.6875 181.886719 C 192.6875 182.007812 192.785156 182.105469 192.90625 182.105469 L 195.132812 182.105469 C 195.253906 182.105469 195.351562 182.007812 195.351562 181.886719 C 195.351562 181.765625 195.253906 181.667969 195.132812 181.667969 Z M 136.726562 185.40625 C 136.667969 185.816406 136.449219 186.085938 136.710938 186.519531 C 137.214844 187.351562 137.605469 187.199219 138.578125 187.21875 C 138.746094 187.226562 138.84375 187.429688 138.960938 187.554688 C 139.089844 187.726562 139.582031 187.457031 139.496094 187.304688 C 139.257812 187.007812 138.96875 186.746094 138.617188 186.714844 C 138.257812 186.679688 137.792969 186.894531 137.496094 186.6875 C 137.003906 186.34375 137.261719 185.683594 136.726562 185.40625 Z M 293.5 194.503906 C 290.761719 194.195312 287.800781 193.898438 284.640625 193.613281 L 283.246094 162.894531 L 262.804688 141.707031 L 255.761719 139.636719 L 255.761719 135.003906 L 249.691406 131.246094 L 246.164062 132.195312 L 246.164062 136.808594 L 210.34375 126.269531 L 199.914062 139.691406 L 179.0625 142.339844 L 161.445312 158.453125 L 175.25 142.480469 L 149.558594 131.835938 L 128.054688 164.445312 L 149.765625 137.660156 L 159.34375 162.636719 L 159.816406 172.910156 C 159.878906 172.335938 160.421875 166.675781 160.707031 163.71875 L 189.769531 161.976562 L 190.472656 177.140625 C 190.585938 176.128906 191.683594 164.792969 192.003906 161.460938 L 211.40625 133.113281 L 232.191406 161.707031 L 232.191406 190.789062 C 222.464844 190.507812 212.191406 190.316406 201.519531 190.222656 L 201.519531 185.761719 C 201.519531 184.601562 200.578125 183.65625 199.417969 183.65625 L 198.589844 183.65625 L 198.589844 183.136719 L 197.707031 183.136719 L 197.464844 183.492188 L 197.464844 183.511719 L 197.445312 183.511719 L 197.445312 183.65625 L 195.609375 183.65625 C 195.503906 183.46875 195.359375 183.300781 195.183594 183.160156 L 195.183594 182.226562 L 192.9375 182.226562 L 192.9375 183.160156 C 192.761719 183.300781 192.617188 183.46875 192.511719 183.65625 L 191.457031 183.65625 C 190.300781 183.65625 189.359375 184.601562 189.359375 185.761719 L 189.359375 186.6875 L 189.300781 186.6875 C 189.171875 186.6875 189.066406 186.792969 189.066406 186.921875 C 189.066406 187.054688 189.171875 187.160156 189.300781 187.160156 L 190.78125 187.160156 C 190.910156 187.160156 191.015625 187.054688 191.015625 186.921875 C 191.015625 186.792969 190.914062 186.691406 190.785156 186.6875 L 190.785156 185.761719 C 190.785156 185.390625 191.089844 185.089844 191.457031 185.089844 L 192.519531 185.089844 C 192.804688 185.601562 193.386719 185.953125 194.058594 185.953125 C 194.730469 185.953125 195.3125 185.601562 195.597656 185.089844 L 197.445312 185.089844 L 197.445312 185.253906 L 197.707031 185.652344 L 197.71875 185.625 L 198.589844 185.625 L 198.589844 185.089844 L 199.417969 185.089844 C 199.789062 185.089844 200.089844 185.394531 200.089844 185.765625 L 200.089844 190.214844 C 195.917969 190.183594 191.683594 190.167969 187.402344 190.167969 C 186.730469 190.167969 186.058594 190.167969 185.386719 190.167969 L 179.792969 174.058594 L 175.996094 175.230469 L 176.089844 175.535156 L 180.007812 190.183594 C 176.382812 190.199219 172.796875 190.226562 169.257812 190.265625 C 169.1875 189.667969 169.011719 189.007812 168.734375 188.445312 C 168.605469 188.183594 168.203125 188.046875 167.960938 187.882812 C 167.902344 187.765625 167.867188 187.652344 167.867188 187.558594 C 167.859375 185.835938 167.402344 184.347656 166.957031 182.96875 C 166.769531 182.382812 167.300781 182.140625 168.058594 182.121094 C 168.945312 182.097656 169.6875 181.898438 170.386719 181.300781 C 170.5625 181.179688 170.605469 181.171875 170.511719 180.980469 C 170.597656 180.941406 170.691406 180.746094 170.675781 180.652344 C 171.214844 180.320312 170.898438 178.703125 170.636719 178.441406 C 170.574219 178.378906 170.535156 178.453125 170.523438 178.367188 C 170.511719 178.253906 170.464844 178.164062 170.355469 178.09375 C 170.519531 178.042969 170.335938 177.824219 170.164062 177.792969 C 169.304688 177.648438 168.425781 177.667969 167.554688 177.613281 C 167.320312 177.554688 166.867188 177.363281 166.652344 177.472656 C 166.339844 177.636719 166.042969 177.742188 165.746094 177.8125 C 165.746094 177.8125 165.746094 177.8125 165.746094 177.808594 C 165.742188 177.761719 165.507812 177.746094 165.199219 177.765625 C 165.171875 177.726562 165.136719 177.6875 165.078125 177.695312 L 164.898438 177.710938 C 164.863281 177.714844 164.851562 177.761719 164.835938 177.800781 C 164.511719 177.84375 164.273438 177.90625 164.277344 177.957031 C 164.277344 177.957031 164.277344 177.960938 164.277344 177.960938 C 163.988281 177.964844 163.6875 177.964844 163.367188 177.980469 C 162.734375 177.730469 162.519531 177.945312 162.054688 178.199219 L 161.390625 178.355469 L 160.691406 178.511719 C 160.699219 178.847656 160.714844 179.179688 160.734375 179.519531 L 160.667969 179.523438 C 160.644531 179.25 160.605469 178.980469 160.558594 178.707031 L 158.855469 178.804688 C 158.625 178.816406 158.402344 178.871094 158.191406 178.96875 L 157.230469 179.390625 L 157.253906 179.667969 L 157.101562 179.691406 C 157.097656 179.765625 157.09375 179.839844 157.09375 179.914062 L 156.484375 180.078125 L 156.496094 180.242188 L 155.195312 180.328125 L 155.039062 180.398438 L 155.203125 180.449219 L 156.507812 180.363281 L 156.519531 180.484375 L 157.148438 180.667969 C 157.15625 180.703125 157.160156 180.738281 157.167969 180.773438 L 157.335938 180.785156 L 157.359375 181.046875 L 158.335938 181.367188 C 158.558594 181.4375 158.804688 181.46875 159.03125 181.457031 L 160.75 181.359375 C 160.746094 181.070312 160.738281 180.785156 160.730469 180.503906 L 160.792969 180.5 C 160.816406 180.828125 160.847656 181.15625 160.878906 181.488281 L 161.644531 181.554688 L 162.273438 181.660156 L 162.273438 181.617188 C 162.597656 181.691406 162.796875 181.71875 163.050781 181.960938 C 163.355469 181.964844 163.574219 181.964844 163.726562 182.003906 C 163.78125 182.015625 163.828125 182.039062 163.867188 182.074219 L 163.121094 182.046875 C 163 182.042969 162.976562 182.066406 163.019531 182.179688 C 163.199219 182.644531 163.199219 183.058594 163.039062 183.457031 C 163.007812 183.519531 163.070312 183.554688 163.136719 183.570312 L 163.761719 183.589844 C 163.636719 183.632812 163.472656 183.703125 163.582031 183.804688 C 163.695312 183.929688 164.25 183.832031 164.285156 184.128906 C 164.414062 185.230469 165.1875 186.195312 165.261719 187.285156 C 165.242188 187.625 165.136719 187.851562 164.96875 188.027344 C 164.835938 188.171875 164.699219 188.25 164.519531 188.277344 L 164.53125 188.484375 C 163.957031 188.597656 163.394531 188.792969 162.996094 189.136719 C 162.890625 189.230469 162.917969 189.410156 162.886719 189.546875 L 162.25 190.359375 C 160.019531 190.394531 157.808594 190.429688 155.625 190.476562 L 152.183594 184.003906 L 149.804688 185.957031 L 148.398438 190.636719 C 148.3125 190.636719 148.226562 190.640625 148.140625 190.640625 L 149.589844 185.816406 L 152.070312 183.78125 L 141.054688 163.050781 L 139.097656 164.09375 L 138.902344 164.3125 L 139.222656 164.382812 L 139.230469 164.402344 L 139.007812 164.644531 L 139.328125 164.714844 L 139.332031 164.738281 L 139.113281 164.980469 L 139.429688 165.050781 L 139.4375 165.074219 L 139.21875 165.316406 L 139.535156 165.386719 L 139.542969 165.410156 L 139.320312 165.652344 L 139.640625 165.722656 L 139.648438 165.742188 L 139.429688 165.984375 L 139.746094 166.058594 L 139.753906 166.082031 L 139.53125 166.320312 L 139.851562 166.390625 L 139.859375 166.414062 L 139.640625 166.65625 L 139.957031 166.730469 L 139.964844 166.75 L 139.742188 166.992188 L 140.058594 167.0625 L 140.070312 167.085938 L 139.847656 167.328125 L 140.167969 167.398438 L 140.175781 167.421875 L 139.957031 167.664062 L 140.273438 167.734375 L 140.277344 167.757812 L 140.058594 167.996094 L 140.375 168.070312 L 140.382812 168.09375 L 140.164062 168.332031 L 140.480469 168.402344 L 140.488281 168.429688 L 140.269531 168.667969 L 140.585938 168.738281 L 140.59375 168.765625 L 140.375 169.003906 L 140.691406 169.074219 L 140.699219 169.097656 L 140.480469 169.335938 L 140.792969 169.410156 L 140.804688 169.433594 L 140.585938 169.671875 L 140.898438 169.742188 L 140.90625 169.769531 L 140.691406 170.007812 L 141.003906 170.078125 L 141.011719 170.105469 L 140.796875 170.34375 L 141.109375 170.414062 L 141.117188 170.4375 L 140.898438 170.675781 L 141.214844 170.746094 L 141.222656 170.773438 L 141.007812 171.011719 L 141.320312 171.082031 L 141.328125 171.109375 L 141.109375 171.347656 L 141.421875 171.414062 L 141.433594 171.445312 L 141.214844 171.679688 L 141.527344 171.75 L 141.539062 171.777344 L 141.324219 172.011719 L 141.636719 172.085938 L 141.644531 172.113281 L 141.425781 172.351562 L 141.738281 172.417969 L 141.75 172.449219 L 141.535156 172.6875 L 141.84375 172.753906 L 141.855469 172.78125 L 141.640625 173.019531 L 141.949219 173.089844 L 141.960938 173.121094 L 141.746094 173.355469 L 142.058594 173.421875 L 142.066406 173.453125 L 141.851562 173.691406 L 142.160156 173.757812 L 142.171875 173.789062 L 141.957031 174.023438 L 142.265625 174.089844 L 142.277344 174.125 L 142.0625 174.359375 L 142.371094 174.425781 L 142.382812 174.460938 L 142.164062 174.691406 L 142.476562 174.761719 L 142.484375 174.792969 L 142.273438 175.027344 L 142.582031 175.097656 L 142.589844 175.128906 L 142.375 175.363281 L 142.683594 175.429688 L 142.695312 175.464844 L 142.480469 175.699219 L 142.789062 175.765625 L 142.800781 175.800781 L 142.585938 176.035156 L 142.890625 176.101562 L 142.902344 176.136719 L 142.6875 176.367188 L 142.996094 176.4375 L 143.003906 176.472656 L 142.792969 176.703125 L 143.101562 176.773438 L 143.113281 176.804688 L 142.902344 177.039062 L 143.207031 177.109375 L 143.214844 177.144531 L 143.003906 177.375 L 143.308594 177.441406 L 143.320312 177.476562 L 143.109375 177.707031 L 143.414062 177.777344 L 143.425781 177.8125 L 143.214844 178.042969 L 143.519531 178.113281 L 143.53125 178.148438 L 143.320312 178.378906 L 143.625 178.445312 L 143.636719 178.484375 L 143.425781 178.714844 L 143.730469 178.78125 L 143.742188 178.820312 L 143.53125 179.050781 L 143.835938 179.117188 L 143.847656 179.15625 L 143.636719 179.386719 L 143.9375 179.453125 L 143.949219 179.488281 L 143.738281 179.71875 L 144.042969 179.789062 L 144.054688 179.828125 L 143.84375 180.054688 L 144.144531 180.121094 L 144.15625 180.160156 L 143.949219 180.390625 L 144.25 180.457031 L 144.261719 180.496094 L 144.054688 180.726562 L 144.355469 180.792969 L 144.367188 180.832031 L 144.15625 181.0625 L 144.457031 181.128906 L 144.472656 181.167969 L 144.261719 181.398438 L 144.566406 181.464844 L 144.578125 181.503906 L 144.367188 181.734375 L 144.667969 181.800781 L 144.679688 181.839844 L 144.472656 182.070312 L 144.773438 182.136719 L 144.785156 182.175781 L 144.578125 182.402344 L 144.878906 182.46875 L 144.890625 182.511719 L 144.683594 182.738281 L 144.984375 182.804688 L 144.996094 182.847656 L 144.789062 183.074219 L 145.089844 183.140625 L 145.101562 183.183594 L 144.894531 183.410156 L 145.195312 183.476562 L 145.207031 183.515625 L 145 183.742188 L 145.300781 183.808594 L 145.3125 183.851562 L 145.105469 184.078125 L 145.402344 184.144531 L 145.417969 184.1875 L 145.210938 184.414062 L 145.507812 184.480469 L 145.523438 184.523438 L 145.316406 184.75 L 145.613281 184.816406 L 145.628906 184.859375 L 145.421875 185.085938 L 145.71875 185.148438 L 145.730469 185.195312 L 145.527344 185.417969 L 145.824219 185.484375 L 145.839844 185.53125 L 145.632812 185.753906 L 145.929688 185.820312 L 145.941406 185.863281 L 145.734375 186.089844 L 146.03125 186.15625 L 146.046875 186.199219 L 145.84375 186.425781 L 146.136719 186.488281 L 146.152344 186.535156 L 145.949219 186.757812 L 146.246094 186.824219 L 146.257812 186.867188 L 146.054688 187.09375 L 146.351562 187.160156 L 146.367188 187.207031 L 146.160156 187.429688 L 146.453125 187.492188 L 146.46875 187.539062 L 146.265625 187.761719 L 146.558594 187.828125 L 146.574219 187.875 L 146.371094 188.097656 L 146.664062 188.164062 L 146.679688 188.210938 L 146.472656 188.433594 L 146.769531 188.5 L 146.785156 188.546875 L 146.582031 188.769531 L 146.875 188.832031 L 146.886719 188.878906 L 146.6875 189.101562 L 146.976562 189.167969 L 146.996094 189.214844 L 146.792969 189.4375 L 147.082031 189.503906 L 147.097656 189.550781 L 146.894531 189.773438 L 147.1875 189.839844 L 147.203125 189.886719 L 147 190.109375 L 147.292969 190.171875 L 147.308594 190.222656 L 147.105469 190.445312 L 147.398438 190.507812 L 147.414062 190.558594 L 147.3125 190.667969 C 145.484375 190.714844 143.671875 190.765625 141.875 190.816406 C 141.425781 189.875 140.921875 188.980469 140.351562 188.0625 C 140.335938 188.011719 140.28125 187.988281 140.214844 187.976562 L 139.765625 187.199219 C 139.734375 187.128906 139.625 187.117188 139.488281 187.144531 C 139.515625 187.175781 139.542969 187.210938 139.570312 187.242188 C 139.574219 187.25 139.578125 187.253906 139.578125 187.257812 C 139.628906 187.347656 139.613281 187.488281 139.414062 187.617188 C 139.316406 187.683594 139.203125 187.722656 139.097656 187.730469 C 139.003906 187.734375 138.914062 187.707031 138.855469 187.632812 C 138.847656 187.621094 138.800781 187.5625 138.777344 187.535156 C 138.75 187.578125 138.738281 187.617188 138.746094 187.660156 C 138.746094 187.671875 138.75 187.683594 138.757812 187.699219 C 138.761719 187.707031 139.183594 188.570312 139.183594 188.570312 C 139.175781 188.605469 139.175781 188.644531 139.183594 188.675781 C 139.1875 188.679688 139.1875 188.683594 139.1875 188.683594 C 139.191406 188.691406 139.191406 188.695312 139.195312 188.703125 C 139.195312 188.703125 139.195312 188.707031 139.195312 188.707031 C 139.488281 189.457031 139.753906 190.175781 140.066406 190.875 C 137.109375 190.964844 134.207031 191.066406 131.363281 191.171875 C 130.390625 189.277344 128.488281 185.59375 128.277344 185.179688 C 127.988281 184.621094 128.890625 183.796875 128.222656 182.503906 C 127.914062 181.898438 127.160156 181.226562 126.527344 181.183594 L 127.1875 182.460938 C 127.429688 182.933594 127.3125 183.367188 126.730469 183.667969 C 126.148438 183.96875 125.726562 183.8125 125.484375 183.34375 L 125.003906 182.414062 C 124.671875 182.953125 124.605469 183.609375 124.917969 184.214844 C 125.585938 185.511719 126.777344 185.25 127.0625 185.808594 C 127.257812 186.183594 128.835938 189.25 129.855469 191.230469 C 127.21875 191.332031 124.632812 191.441406 122.101562 191.554688 L 118.558594 182.742188 L 118.816406 181.804688 L 115.898438 182.984375 L 116.730469 183.480469 L 120.015625 191.652344 C 116.558594 191.820312 113.210938 191.996094 109.976562 192.1875 C 109.472656 191.378906 108.890625 190.386719 108.722656 189.859375 C 108.324219 188.605469 109.679688 186.929688 109.679688 186.929688 L 109.640625 186.808594 L 105.027344 188.277344 L 105.066406 188.402344 C 105.066406 188.402344 107.136719 188.984375 107.53125 190.238281 C 107.667969 190.667969 107.757812 191.507812 107.816406 192.320312 C 105.429688 192.464844 103.109375 192.617188 100.863281 192.777344 L 100.105469 191.585938 C 100.105469 191.585938 99.425781 191.101562 99.078125 190.5625 C 98.953125 190.371094 98.980469 189.792969 98.980469 189.792969 L 98.664062 189.285156 L 98.253906 189.53125 L 96.105469 185.933594 L 96.117188 185.660156 L 95.609375 184.730469 L 95.289062 184.925781 L 95.273438 184.933594 L 95.261719 184.941406 L 94.941406 185.132812 L 95.519531 186.019531 L 95.769531 186.136719 L 97.917969 189.734375 L 97.511719 189.976562 L 97.808594 190.496094 C 97.808594 190.496094 98.332031 190.742188 98.441406 190.945312 C 98.753906 191.507812 98.859375 192.335938 98.859375 192.335938 L 99.175781 192.898438 C 92.503906 193.386719 86.503906 193.929688 81.292969 194.515625 L 293.5 194.515625 Z M 152.828125 190.125 C 153.070312 189.875 153.488281 189.898438 153.761719 190.179688 C 153.855469 190.273438 153.917969 190.386719 153.953125 190.507812 C 153.445312 190.519531 152.9375 190.53125 152.429688 190.539062 Z M 152.007812 184.417969 C 152.078125 184.378906 152.167969 184.40625 152.207031 184.476562 C 152.246094 184.550781 152.21875 184.640625 152.148438 184.679688 C 152.074219 184.71875 151.984375 184.691406 151.945312 184.617188 C 151.90625 184.546875 151.933594 184.457031 152.007812 184.417969 Z M 150.011719 186.074219 C 150.082031 186.035156 150.175781 186.0625 150.210938 186.132812 C 150.25 186.207031 150.222656 186.296875 150.152344 186.335938 C 150.082031 186.375 149.992188 186.347656 149.953125 186.273438 C 149.914062 186.203125 149.9375 186.109375 150.011719 186.074219 Z M 127.636719 185.382812 C 127.304688 185.554688 126.964844 185.582031 126.816406 185.460938 C 126.996094 185.539062 127.304688 185.496094 127.613281 185.335938 C 127.917969 185.175781 128.136719 184.949219 128.175781 184.757812 C 128.1875 184.949219 127.972656 185.210938 127.636719 185.382812 Z M 134.386719 177.59375 C 134.164062 177.195312 133.792969 177.328125 133.828125 177.792969 C 134.019531 180.261719 134.203125 182.710938 134.660156 185.113281 C 134.886719 186.285156 136.0625 187.152344 136.789062 186.824219 C 136.730469 186.753906 136.675781 186.671875 136.617188 186.578125 C 136.402344 186.21875 136.476562 185.945312 136.546875 185.683594 C 136.570312 185.597656 136.59375 185.511719 136.609375 185.417969 L 134.347656 178.277344 L 136.730469 185.296875 C 136.746094 185.296875 136.761719 185.300781 136.777344 185.308594 C 137.097656 185.472656 137.171875 185.765625 137.242188 186.019531 C 137.257812 186.082031 137.273438 186.148438 137.296875 186.207031 C 137.640625 185.417969 137.886719 183.949219 137.414062 182.941406 C 136.515625 181.023438 135.445312 179.492188 134.386719 177.59375 Z M 150.074219 186.230469 L 150.105469 186.289062 L 150.140625 186.269531 L 150.109375 186.214844 L 150.167969 186.183594 L 150.148438 186.144531 L 150.089844 186.175781 L 150.058594 186.117188 L 150.019531 186.136719 L 150.054688 186.195312 L 149.996094 186.226562 L 150.015625 186.261719 Z M 150.074219 186.230469 " fill-opacity="1" fill-rule="nonzero" style="fill: rgb(5, 250, 0);"/>
  </g>
</svg>